<svg xmlns="http://www.w3.org/2000/svg" width="128" height="128" viewBox="0 0 128 128" xml:space="preserve"><path fill="#282D33" d="M112.406 108.291H4.81V67.853h3.991V104.3h99.614V67.483h3.991zM8.801 50.146H4.81V10.931h107.596v38.845h-3.991V14.921H8.801z"/><path fill="#282D33" d="M22.952 25.567v6.407h-5.377v-6.407h5.377m3.942-3.941H13.637v14.288h13.257V21.626zM42.124 25.567v6.407h-5.376v-6.407h5.376m3.941-3.941H32.809v14.288h13.257V21.626h-.001zM61.295 25.567v6.407h-5.378v-6.407h5.378m3.94-3.941H51.978v14.288h13.258V21.626h-.001zM80.467 25.567v6.407H75.09v-6.407h5.377m3.94-3.941H71.151v14.288h13.256V21.626zM99.639 25.567v6.407h-5.378v-6.407h5.378m3.94-3.941H90.321v14.288h13.258V21.626zM40.398 79.584v14.972H17.792V79.584h22.606m3.94-3.94H13.851v22.852H44.337l.001-22.852zM99.635 79.584v14.972H77.03V79.584H99.635m3.942-3.94H73.09v22.852H103.577V75.644zM68.264 106.314h-3.992V79.852H52.941v26.462H48.95V75.861h19.314zM.699 113.078h115.814v3.991H.699z"/><g><path fill="#282D33" d="M1.802 10.931h113.609v3.991H1.802z"/></g><g><path fill="#282D33" d="M112.309 26.231h7.273v3.991h-7.273zM112.309 38.987h7.273v3.991h-7.273z"/></g><g><path fill="#282D33" d="M115.619 32.806h3.99v3.69h-3.99z"/></g><g><path fill="#282D33" d="M128 49.694h-12.589v-3.991h8.599V22.401h-8.599V18.41H128z"/></g><g><path fill="#282D33" d="m114.021 57.295-12.64-12.169H15.407L2.768 57.295 0 54.42l13.799-13.284h89.191l13.798 13.284z"/></g><g><path fill="#282D33" d="M112.515 58.444v1.093c0 3.998-3.225 7.238-7.204 7.238-3.055 0-5.655-1.908-6.704-4.596-1.057 2.688-3.655 4.596-6.709 4.596-3.049 0-5.65-1.906-6.701-4.594-1.053 2.688-3.655 4.594-6.705 4.594-3.053 0-5.652-1.908-6.705-4.596-1.052 2.688-3.655 4.596-6.705 4.596-3.052 0-5.652-1.908-6.705-4.596-1.051 2.688-3.655 4.596-6.704 4.596-3.048 0-5.653-1.906-6.704-4.594-1.053 2.688-3.653 4.594-6.703 4.594-3.053 0-5.653-1.908-6.708-4.596-1.048 2.688-3.65 4.596-6.702 4.596-3.055 0-5.653-1.908-6.704-4.596-1.053 2.688-3.655 4.596-6.706 4.596-3.98 0-7.207-3.24-7.207-7.238v-1.093h108.276m3.94-3.94H.3V59.537c0 6.165 5 11.178 11.146 11.178 2.489 0 4.82-.811 6.704-2.234a11.087 11.087 0 0 0 6.707 2.234c2.488 0 4.821-.811 6.705-2.233 1.886 1.424 4.216 2.233 6.704 2.233s4.818-.811 6.703-2.233c1.884 1.424 4.215 2.233 6.704 2.233s4.821-.811 6.704-2.234a11.079 11.079 0 0 0 6.705 2.234c2.49 0 4.821-.811 6.705-2.234a11.079 11.079 0 0 0 6.705 2.234c2.486 0 4.819-.811 6.703-2.233 1.887 1.424 4.215 2.233 6.703 2.233s4.82-.811 6.707-2.234a11.07 11.07 0 0 0 6.706 2.234c6.145 0 11.145-5.013 11.145-11.178V54.504h-.001z"/></g></svg>