<svg version="1.1" id="lights" xmlns="http://www.w3.org/2000/svg" x="0" y="0" viewBox="0 0 128 128" style="enable-background:new 0 0 128 128" xml:space="preserve"><style>.st0{display:none;fill:#3e3e3e}</style><g id="row1_1_"><path id="blub_5_" d="M79.1 128H50.6v-7.7h28.5v7.7zm6-33.1H43.7v4.9h41.5v-4.9zm0 8.9H43.7v4.9h41.5v-4.9zm0 8.9H43.7v4.9h41.5v-4.9zm.2-21.4H43.6V89c0-7.1-4.5-13.8-9.2-20.8C29 60 22.8 50.8 22.8 39.4 22.8 17.7 41.3 0 64 0s41.2 17.7 41.2 39.4c0 11.4-5.9 20.5-11.1 28.5-4.6 7.1-8.9 13.7-8.9 21.2v2.2zm-36.9-4.6h32.2c.7-7.7 5-14.3 9.5-21.3 5.1-7.8 10.3-16 10.3-26C100.4 20.2 84 4.6 64 4.6S27.6 20.2 27.6 39.4c0 10.1 5.5 18.3 10.9 26.3 4.7 6.9 9.1 13.5 9.9 21zm18.2-6.6h-4.8V56.4l-16-14.8 3.4-3.3 15 13.9 14.5-13.9 3.4 3.3-15.5 14.7v23.8z" style="fill:#3e3e3e"/></g></svg>