<svg xmlns="http://www.w3.org/2000/svg" viewBox="0 0 256 256" xml:space="preserve"><path fill="#F0C020" d="M171.877 104.181a5.043 5.043 0 0 0 5.043-5.043V85.284h-10.087v13.853a5.044 5.044 0 0 0 5.044 5.044zM84.123 104.181a5.043 5.043 0 0 0 5.043-5.043V85.284H79.08v13.853a5.043 5.043 0 0 0 5.043 5.044zM56.751 157.204a5.043 5.043 0 0 0 5.043-5.043v-13.853H51.708v13.853a5.043 5.043 0 0 0 5.043 5.043zM199.249 157.204a5.043 5.043 0 0 0 5.043-5.043v-13.853h-10.087v13.853a5.045 5.045 0 0 0 5.044 5.043z"/><path d="M121.94 43.77c1.342.271 2.657-.633 2.91-1.99a2.488 2.488 0 0 0-1.99-2.92c-1.34-.26-2.67.66-2.92 1.99-.25 1.36.64 2.67 2 2.92zM170.63 122.069c-.606 1.214-.086 2.739 1.16 3.341a2.494 2.494 0 0 0 3.34-1.17 2.48 2.48 0 0 0-1.17-3.33c-1.2-.591-2.76-.04-3.33 1.159zM107.71 197.16a2.5 2.5 0 0 0 .82-3.44 2.487 2.487 0 0 0-3.43-.82 2.49 2.49 0 0 0-.83 3.431 2.496 2.496 0 0 0 3.44.829z"/><path d="M248.16 104.18c0-1.38-1.12-2.5-2.49-2.5h-66.701a7.46 7.46 0 0 0 .451-2.54V85.29c0-.94-.538-1.794-1.32-2.21l-37.908-20.21-9.741-51.83c-.505-2.699-4.381-2.715-4.91 0l-3.75 19.989c-.269 1.344.635 2.664 1.99 2.91 1.34.261 2.67-.66 2.92-1.989l1.3-6.921 6.948 36.98h-13.892l1.954-10.4a2.502 2.502 0 0 0-2-2.92c-1.34-.25-2.66.65-2.91 1.98l-.01.01-2.291 12.195L77.9 83.08a2.514 2.514 0 0 0-1.32 2.21v13.85c0 .892.165 1.745.452 2.54H10.33c-1.37 0-2.5 1.12-2.5 2.5s1.13 2.5 2.5 2.5h73.79c4.16 0 7.54-3.39 7.55-7.54V87.79h19.449l-3.952 21.035c-.099.034-.201.059-.297.104l-56.25 27.13c-.899.433-1.41 1.376-1.41 2.25v13.851c0 .893.164 1.745.449 2.54H10.33c-1.37 0-2.5 1.13-2.5 2.5 0 1.38 1.13 2.5 2.5 2.5h46.42c4.16 0 7.54-3.381 7.54-7.54v-11.35h36.868l-4.277 22.767c-.08.3-15.636 44.527-15.714 44.864-.062.27-4.264 34.535-4.298 34.81H50.33c-1.37 0-2.5 1.12-2.5 2.5s1.13 2.5 2.5 2.5h155.34a2.5 2.5 0 0 0 0-5h-26.541c-.815-6.625-4.168-34.211-4.369-35.08-.064-.183-15.592-44.406-15.642-44.594l-4.279-22.766h36.871v11.351c0 4.159 3.38 7.54 7.54 7.54h46.42c1.37 0 2.49-1.12 2.49-2.5 0-1.37-1.12-2.5-2.49-2.5h-39.329a7.48 7.48 0 0 0 .449-2.54c0-.366.003-13.541-.005-13.906a2.468 2.468 0 0 0-1.405-2.194l-22.41-10.81c-1.21-.59-2.76-.03-3.34 1.17a2.487 2.487 0 0 0 1.17 3.33l12.55 6.06H153.9l-3.933-20.926 12.814 6.176c1.21.59 2.77.04 3.34-1.16a2.505 2.505 0 0 0-1.16-3.34h-.01c-.389-.188-15.713-7.6-16.123-7.736l-3.953-21.033h19.455v11.35c0 4.15 3.39 7.54 7.55 7.54h73.79a2.503 2.503 0 0 0 2.49-2.503zM56.75 154.7c-1.4 0-2.54-1.141-2.54-2.54v-11.35h5.08l.01 11.351a2.558 2.558 0 0 1-2.55 2.539zm139.96-13.89h5.08v11.351a2.545 2.545 0 0 1-2.54 2.54c-1.4 0-2.54-1.141-2.54-2.54V140.81zm-60.399-71.543 1.765 9.397-6.273-5.467 4.508-3.93zm-1.129 13.512h-14.367l7.182-6.263 7.185 6.263zm-3.888-15.769L128 69.881l-3.295-2.872h6.589zm-11.604 2.266 4.502 3.924-6.265 5.46 1.763-9.384zm-3.479 18.514h23.58l3.925 20.89h-31.43l3.925-20.89zm.76 25.89h22.058L128 120.299l-11.029-6.619zm27.159 22.13h-32.261l16.13-9.684 16.131 9.684zM86.67 99.14a2.559 2.559 0 0 1-2.55 2.54c-1.4 0-2.54-1.14-2.54-2.54V87.79h5.09v11.35zm2.41-16.361 25.538-13.614-2.558 13.614H89.08zm21.853 33.1 12.213 7.333-15.318 9.193 3.105-16.526zM62.64 135.81l43.389-20.924-3.931 20.924H62.64zm38.008 32.155 22.564 13.827-9.593 5.878a2.507 2.507 0 0 0-.82 3.439c.74 1.233 2.331 1.507 3.43.83L128 184.726l35.533 21.774H92.469l6.711-4.11a2.497 2.497 0 0 0 .83-3.439 2.495 2.495 0 0 0-3.44-.83l-8.28 5.073 12.358-35.229zm7.655-1.175h39.392l-19.697 12.069-19.695-12.069zM85.814 211.5h21.177L82.52 238.279l3.294-26.779zm-1.055 31.75 29.02-31.75h28.442l29.019 31.75H84.759zm88.72-4.971L149 211.5h21.187l3.292 26.779zm-18.107-70.326 12.347 35.246-34.932-21.406 22.585-13.84zm-5.62-27.143 3.942 20.98h-51.388l3.942-20.98h43.504zm-4.684-24.932 3.105 16.527-15.32-9.194 12.215-7.333zm-1.135-33.099-2.559-13.614 25.546 13.614h-22.987zM174.42 99.14c0 1.4-1.14 2.54-2.54 2.54s-2.54-1.14-2.55-2.54V87.79h5.09v11.35z"/></svg>