<svg xmlns="http://www.w3.org/2000/svg" viewBox="0 0 48 48"><defs><style>.cls-1{fill:none;}</style></defs><g id="Layer_2" data-name="Layer 2"><g id="_1" data-name="1"><path class="cls-1" d="M2 11h2v36H2zM22 11h2v36h-2zM44 13h2v34h-2z"/><path class="cls-1" d="M0 46h48v2H0z"/><path class="cls-1" transform="rotate(-45 7 7)" d="M-1.49 6h16.97v2H-1.49z"/><path class="cls-1" d="M47 14H25a1 1 0 0 1-.71-.29l-12-12a1 1 0 0 1-.21-1.09A1 1 0 0 1 13 0h22a1 1 0 0 1 .71.29l12 12a1 1 0 0 1 .21 1.09A1 1 0 0 1 47 14zm-21.59-2h19.18l-10-10H15.41z"/><path class="cls-1" transform="rotate(-45 33.998 6.997)" d="M33-1.49h2v16.97h-2z"/><path class="cls-1" transform="rotate(-45 26.998 6.997)" d="M26-1.49h2v16.97h-2z"/><path class="cls-1" d="M17 48H9a1 1 0 0 1-1-1V33a1 1 0 0 1 1-1h8a1 1 0 0 1 1 1v14a1 1 0 0 1-1 1zm-7-2h6V34h-6zM17 28H9a1 1 0 0 1-1-1v-8a1 1 0 0 1 1-1h8a1 1 0 0 1 1 1v8a1 1 0 0 1-1 1zm-7-2h6v-6h-6z"/><path class="cls-1" d="M7 32h12v2H7zM7 26h12v2H7zM39 28H29a1 1 0 0 1-1-1v-8a1 1 0 0 1 1-1h10a1 1 0 0 1 1 1v8a1 1 0 0 1-1 1zm-9-2h8v-6h-8z"/><path class="cls-1" d="M27 26h14v2H27z"/><path class="cls-1" d="M33 19h2v8h-2zM33 33h2v8h-2z"/><path class="cls-1" d="M39 42H29a1 1 0 0 1-1-1v-8a1 1 0 0 1 1-1h10a1 1 0 0 1 1 1v8a1 1 0 0 1-1 1zm-9-2h8v-6h-8z"/><path class="cls-1" d="M27 40h14v2H27zM13 40h2v2h-2z"/></g></g></svg>